<mxfile host="app.diagrams.net" agent="Mozilla/5.0 (Windows NT 10.0; Win64; x64) AppleWebKit/537.36 (KHTML, like Gecko) Chrome/131.0.0.0 Safari/537.36 Edg/131.0.0.0" version="24.9.0">
  <diagram name="Page-1" id="Mfe-B-QD5R1EB0UYY4GC">
    <mxGraphModel dx="334" dy="451" grid="1" gridSize="10" guides="1" tooltips="1" connect="1" arrows="1" fold="1" page="1" pageScale="1" pageWidth="827" pageHeight="1169" math="0" shadow="0">
      <root>
        <mxCell id="0" />
        <mxCell id="1" parent="0" />
        <mxCell id="tgWSlAyU7WmNsQbiGkO3-10" style="edgeStyle=orthogonalEdgeStyle;rounded=0;orthogonalLoop=1;jettySize=auto;html=1;exitX=0.5;exitY=1;exitDx=0;exitDy=0;entryX=0.5;entryY=0;entryDx=0;entryDy=0;endArrow=none;endFill=0;" edge="1" parent="1" source="tgWSlAyU7WmNsQbiGkO3-1" target="tgWSlAyU7WmNsQbiGkO3-2">
          <mxGeometry relative="1" as="geometry" />
        </mxCell>
        <mxCell id="tgWSlAyU7WmNsQbiGkO3-1" value="Session" style="swimlane;whiteSpace=wrap;html=1;" vertex="1" parent="1">
          <mxGeometry x="300" y="70" width="200" height="110" as="geometry" />
        </mxCell>
        <mxCell id="tgWSlAyU7WmNsQbiGkO3-9" value="session_id{PK}&lt;div&gt;start_time&lt;/div&gt;&lt;div&gt;end_time&lt;/div&gt;" style="text;html=1;align=left;verticalAlign=middle;whiteSpace=wrap;rounded=0;" vertex="1" parent="tgWSlAyU7WmNsQbiGkO3-1">
          <mxGeometry x="10" y="30" width="180" height="60" as="geometry" />
        </mxCell>
        <mxCell id="tgWSlAyU7WmNsQbiGkO3-14" style="edgeStyle=orthogonalEdgeStyle;rounded=0;orthogonalLoop=1;jettySize=auto;html=1;exitX=0.5;exitY=1;exitDx=0;exitDy=0;endArrow=none;endFill=0;" edge="1" parent="1" source="tgWSlAyU7WmNsQbiGkO3-2" target="tgWSlAyU7WmNsQbiGkO3-3">
          <mxGeometry relative="1" as="geometry" />
        </mxCell>
        <mxCell id="tgWSlAyU7WmNsQbiGkO3-24" style="edgeStyle=orthogonalEdgeStyle;rounded=0;orthogonalLoop=1;jettySize=auto;html=1;exitX=1;exitY=0.5;exitDx=0;exitDy=0;entryX=0.5;entryY=1;entryDx=0;entryDy=0;endArrow=none;endFill=0;" edge="1" parent="1" source="tgWSlAyU7WmNsQbiGkO3-2" target="tgWSlAyU7WmNsQbiGkO3-22">
          <mxGeometry relative="1" as="geometry" />
        </mxCell>
        <mxCell id="tgWSlAyU7WmNsQbiGkO3-2" value="GamePlay" style="swimlane;whiteSpace=wrap;html=1;" vertex="1" parent="1">
          <mxGeometry x="300" y="320" width="200" height="140" as="geometry" />
        </mxCell>
        <mxCell id="tgWSlAyU7WmNsQbiGkO3-8" value="gameplay_id{PK}&lt;div&gt;session_id&lt;/div&gt;&lt;div&gt;mode_id&lt;/div&gt;&lt;div&gt;start_time&lt;/div&gt;&lt;div&gt;end_time&lt;/div&gt;&lt;div&gt;/duration&lt;/div&gt;" style="text;html=1;align=left;verticalAlign=middle;whiteSpace=wrap;rounded=0;" vertex="1" parent="tgWSlAyU7WmNsQbiGkO3-2">
          <mxGeometry x="10" y="30" width="180" height="100" as="geometry" />
        </mxCell>
        <mxCell id="tgWSlAyU7WmNsQbiGkO3-18" style="edgeStyle=orthogonalEdgeStyle;rounded=0;orthogonalLoop=1;jettySize=auto;html=1;exitX=0;exitY=0.5;exitDx=0;exitDy=0;entryX=0;entryY=0.5;entryDx=0;entryDy=0;endArrow=none;endFill=0;" edge="1" parent="1" source="tgWSlAyU7WmNsQbiGkO3-3" target="tgWSlAyU7WmNsQbiGkO3-1">
          <mxGeometry relative="1" as="geometry">
            <Array as="points">
              <mxPoint x="260" y="700" />
              <mxPoint x="260" y="125" />
            </Array>
          </mxGeometry>
        </mxCell>
        <mxCell id="tgWSlAyU7WmNsQbiGkO3-3" value="Question" style="swimlane;whiteSpace=wrap;html=1;" vertex="1" parent="1">
          <mxGeometry x="300" y="630" width="200" height="140" as="geometry" />
        </mxCell>
        <mxCell id="tgWSlAyU7WmNsQbiGkO3-7" value="question_id{PK}&lt;div&gt;gameplay_id&lt;/div&gt;&lt;div&gt;question_text&lt;br&gt;&lt;div&gt;user_answer&lt;/div&gt;&lt;/div&gt;&lt;div&gt;correct_answer&lt;/div&gt;&lt;div&gt;/is_correct&lt;/div&gt;" style="text;html=1;align=left;verticalAlign=middle;whiteSpace=wrap;rounded=0;" vertex="1" parent="tgWSlAyU7WmNsQbiGkO3-3">
          <mxGeometry x="10" y="30" width="180" height="100" as="geometry" />
        </mxCell>
        <mxCell id="tgWSlAyU7WmNsQbiGkO3-11" value="Contain" style="text;html=1;align=center;verticalAlign=middle;whiteSpace=wrap;rounded=0;" vertex="1" parent="1">
          <mxGeometry x="400" y="230" width="60" height="30" as="geometry" />
        </mxCell>
        <mxCell id="tgWSlAyU7WmNsQbiGkO3-12" value="1..1" style="text;html=1;align=center;verticalAlign=middle;whiteSpace=wrap;rounded=0;" vertex="1" parent="1">
          <mxGeometry x="340" y="180" width="60" height="30" as="geometry" />
        </mxCell>
        <mxCell id="tgWSlAyU7WmNsQbiGkO3-13" value="1..m" style="text;html=1;align=center;verticalAlign=middle;whiteSpace=wrap;rounded=0;" vertex="1" parent="1">
          <mxGeometry x="350" y="290" width="60" height="30" as="geometry" />
        </mxCell>
        <mxCell id="tgWSlAyU7WmNsQbiGkO3-15" value="Questions" style="text;html=1;align=center;verticalAlign=middle;whiteSpace=wrap;rounded=0;" vertex="1" parent="1">
          <mxGeometry x="400" y="530" width="60" height="30" as="geometry" />
        </mxCell>
        <mxCell id="tgWSlAyU7WmNsQbiGkO3-16" value="1..1" style="text;html=1;align=center;verticalAlign=middle;whiteSpace=wrap;rounded=0;" vertex="1" parent="1">
          <mxGeometry x="340" y="460" width="60" height="30" as="geometry" />
        </mxCell>
        <mxCell id="tgWSlAyU7WmNsQbiGkO3-17" value="1..m" style="text;html=1;align=center;verticalAlign=middle;whiteSpace=wrap;rounded=0;" vertex="1" parent="1">
          <mxGeometry x="340" y="600" width="60" height="30" as="geometry" />
        </mxCell>
        <mxCell id="tgWSlAyU7WmNsQbiGkO3-19" value="IsIn" style="text;html=1;align=center;verticalAlign=middle;whiteSpace=wrap;rounded=0;" vertex="1" parent="1">
          <mxGeometry x="200" y="375" width="60" height="30" as="geometry" />
        </mxCell>
        <mxCell id="tgWSlAyU7WmNsQbiGkO3-20" value="1..m" style="text;html=1;align=center;verticalAlign=middle;whiteSpace=wrap;rounded=0;" vertex="1" parent="1">
          <mxGeometry x="250" y="100" width="60" height="30" as="geometry" />
        </mxCell>
        <mxCell id="tgWSlAyU7WmNsQbiGkO3-21" value="1..m" style="text;html=1;align=center;verticalAlign=middle;whiteSpace=wrap;rounded=0;" vertex="1" parent="1">
          <mxGeometry x="250" y="700" width="60" height="30" as="geometry" />
        </mxCell>
        <mxCell id="tgWSlAyU7WmNsQbiGkO3-22" value="Mode" style="swimlane;whiteSpace=wrap;html=1;" vertex="1" parent="1">
          <mxGeometry x="510" y="200" width="200" height="140" as="geometry" />
        </mxCell>
        <mxCell id="tgWSlAyU7WmNsQbiGkO3-23" value="mode_id{PK}&lt;div&gt;mode_name&lt;/div&gt;&lt;div&gt;&lt;div&gt;numRange&lt;/div&gt;&lt;div&gt;maxNoOfNums&lt;/div&gt;&lt;div&gt;noOfQs&lt;/div&gt;&lt;div&gt;arithOperands&lt;/div&gt;&lt;/div&gt;" style="text;html=1;align=left;verticalAlign=middle;whiteSpace=wrap;rounded=0;" vertex="1" parent="tgWSlAyU7WmNsQbiGkO3-22">
          <mxGeometry x="10" y="30" width="180" height="100" as="geometry" />
        </mxCell>
        <mxCell id="tgWSlAyU7WmNsQbiGkO3-25" value="PlayedIn" style="text;html=1;align=center;verticalAlign=middle;whiteSpace=wrap;rounded=0;" vertex="1" parent="1">
          <mxGeometry x="570" y="390" width="60" height="30" as="geometry" />
        </mxCell>
        <mxCell id="tgWSlAyU7WmNsQbiGkO3-26" value="1..m" style="text;html=1;align=center;verticalAlign=middle;whiteSpace=wrap;rounded=0;" vertex="1" parent="1">
          <mxGeometry x="490" y="390" width="60" height="30" as="geometry" />
        </mxCell>
        <mxCell id="tgWSlAyU7WmNsQbiGkO3-27" value="1..m" style="text;html=1;align=center;verticalAlign=middle;whiteSpace=wrap;rounded=0;" vertex="1" parent="1">
          <mxGeometry x="610" y="340" width="60" height="30" as="geometry" />
        </mxCell>
      </root>
    </mxGraphModel>
  </diagram>
</mxfile>
